<?xml version="1.0" standalone="no"?>
<!DOCTYPE svg PUBLIC "-//W3C//DTD SVG 20010904//EN"
 "http://www.w3.org/TR/2001/REC-SVG-20010904/DTD/svg10.dtd">
<svg version="1.0" xmlns="http://www.w3.org/2000/svg"
 width="1167.000000pt" height="1167.000000pt" viewBox="0 0 1167.000000 1167.000000"
 preserveAspectRatio="xMidYMid meet">

<g transform="translate(0.000000,1167.000000) scale(0.100000,-0.100000)"
fill="#000000" stroke="none">
<path d="M5644 9735 c-7 -19 -14 -41 -14 -48 0 -24 -26 -79 -58 -123 -54 -74
-172 -138 -407 -219 -60 -21 -143 -53 -184 -71 -40 -19 -77 -34 -81 -34 -5 0
-38 38 -74 84 -189 242 -391 326 -639 267 -523 -125 -679 -687 -297 -1072 56
-57 109 -99 155 -124 39 -21 75 -44 81 -52 9 -10 4 -38 -22 -118 -67 -213 -93
-361 -119 -695 -7 -96 -21 -218 -30 -270 -29 -163 -5 -367 59 -511 62 -140
220 -321 360 -413 139 -92 315 -165 511 -212 105 -25 106 -27 22 -115 -81 -85
-143 -173 -211 -303 -71 -134 -99 -171 -146 -190 -52 -21 -239 -31 -383 -21
l-108 7 -40 54 c-52 71 -125 114 -195 114 -120 0 -213 -57 -263 -160 -24 -51
-29 -56 -75 -67 -74 -18 -140 -63 -144 -96 -4 -35 16 -42 63 -23 59 25 105 20
158 -15 51 -33 67 -34 156 -7 42 12 44 12 65 -15 24 -29 55 -34 103 -16 19 7
75 7 189 -1 214 -14 341 -2 479 46 55 19 114 38 130 42 39 9 59 22 73 47 11
19 11 19 12 1 0 -10 -11 -31 -25 -48 -13 -16 -30 -47 -36 -69 -9 -29 -16 -38
-29 -34 -9 3 -47 -10 -86 -29 -95 -47 -196 -61 -422 -60 -175 2 -268 13 -350
45 -13 5 -54 9 -91 9 -37 0 -82 5 -99 11 -25 8 -42 8 -76 -4 -35 -12 -52 -13
-85 -4 -34 9 -44 9 -51 -3 -12 -19 -2 -67 21 -108 l19 -33 -22 6 c-46 14 -62
41 -65 106 -2 64 -14 89 -42 89 -30 0 -41 -23 -41 -87 0 -67 22 -126 62 -170
25 -27 18 -48 -19 -57 -39 -10 -90 -51 -109 -88 -21 -40 -15 -125 12 -161 26
-36 104 -77 146 -77 50 0 58 -13 40 -63 -19 -53 -10 -106 25 -147 37 -44 74
-60 142 -60 106 0 198 48 322 167 50 48 52 49 157 38 102 -11 106 -17 75 -107
-31 -87 -42 -241 -24 -321 17 -75 76 -142 133 -151 24 -3 70 -10 103 -15 33
-5 80 -14 105 -21 25 -7 88 -18 140 -26 52 -7 118 -18 145 -24 33 -7 193 -10
470 -8 324 2 425 -1 443 -10 20 -11 28 -10 57 8 25 16 50 21 97 21 35 0 112 2
172 5 105 4 111 3 149 -22 32 -21 46 -24 71 -18 49 12 227 9 267 -4 19 -7 64
-16 100 -21 99 -14 297 -59 409 -93 73 -22 166 -64 192 -86 34 -29 86 -7 159
69 156 159 233 331 232 516 0 89 -26 227 -44 239 -5 3 -9 16 -9 28 0 22 6 25
75 35 116 17 115 17 201 -59 43 -38 106 -84 139 -102 55 -31 67 -33 152 -33
88 0 93 1 123 30 61 58 75 114 43 180 -9 19 -14 38 -10 42 4 3 32 10 63 14 59
8 106 34 138 77 27 35 33 119 12 160 -18 35 -68 76 -106 87 -50 15 -52 24 -14
68 48 56 67 125 55 199 -21 128 -94 196 -235 220 -12 2 -25 21 -37 54 -35 94
-123 155 -236 162 -92 6 -127 -10 -212 -97 l-73 -76 -207 0 c-228 0 -259 6
-308 58 -17 17 -65 93 -106 167 -97 177 -122 213 -201 288 -36 35 -66 70 -66
78 0 7 12 17 28 20 517 121 865 392 973 759 21 71 24 100 24 255 -1 134 -5
189 -18 236 -11 39 -17 99 -17 160 -1 179 -19 329 -66 539 -19 81 -60 219 -74
245 -16 29 -4 44 68 85 94 54 237 200 284 290 66 128 79 171 85 296 5 100 3
126 -15 185 -51 168 -165 295 -337 379 -150 73 -300 92 -427 56 -140 -40 -256
-125 -368 -270 -30 -39 -61 -71 -68 -71 -21 0 -276 103 -284 115 -4 5 0 19 8
30 8 11 26 43 40 72 20 42 24 64 22 115 -3 57 -5 63 -25 66 -13 2 -53 -9 -90
-24 -65 -26 -79 -28 -278 -34 -174 -5 -216 -9 -243 -23 -18 -10 -36 -16 -41
-13 -4 3 -26 35 -47 72 -41 70 -120 144 -155 144 -13 0 -25 -12 -35 -35z m119
-137 c42 -68 46 -115 12 -172 -15 -26 -24 -50 -21 -53 8 -9 57 20 121 70 85
68 99 71 305 72 124 1 199 6 228 15 60 19 71 6 47 -57 -12 -32 -40 -69 -82
-110 -34 -35 -63 -65 -63 -68 0 -3 25 -5 55 -5 86 0 303 -86 457 -181 235
-145 420 -352 550 -616 29 -60 58 -122 65 -138 100 -251 154 -519 169 -847 3
-68 13 -157 22 -198 24 -107 23 -293 -2 -390 -48 -189 -151 -338 -331 -478
-211 -164 -538 -272 -1040 -342 -44 -6 -100 -17 -125 -25 -103 -32 -467 -27
-640 8 -41 8 -109 21 -150 27 -123 19 -361 67 -438 89 -400 111 -693 322 -813
586 -68 151 -87 356 -49 529 12 56 20 127 20 187 0 219 50 514 126 738 93 274
215 480 392 659 184 185 356 285 697 405 234 83 372 186 416 315 15 44 36 38
72 -20z m-1352 -89 c70 -15 127 -42 189 -88 49 -37 100 -98 100 -120 0 -19
-11 -12 -53 30 -49 48 -103 76 -177 92 -110 22 -274 0 -357 -48 -23 -14 -49
-25 -58 -25 -42 0 -180 -122 -209 -185 -11 -22 -27 -51 -37 -64 -17 -21 -19
-22 -21 -5 -6 80 32 156 121 244 113 113 234 163 433 179 9 0 40 -4 69 -10z
m3146 -38 c184 -72 329 -237 321 -364 -3 -38 -6 -47 -11 -32 -5 11 -13 27 -18
35 -5 8 -16 30 -25 48 -28 62 -136 158 -226 201 -118 58 -169 71 -276 71 -124
0 -212 -26 -289 -86 -31 -24 -58 -42 -61 -40 -17 18 111 139 178 168 79 35 93
38 210 34 102 -2 125 -7 197 -35z m-2779 -264 c2 -12 -3 -17 -17 -17 -23 0
-24 1 -15 25 8 19 28 15 32 -8z m-118 -82 c-7 -9 -15 -13 -17 -11 -7 7 7 26
19 26 6 0 6 -6 -2 -15z m2440 -50 c13 -14 20 -25 16 -25 -12 0 -56 32 -56 41
0 16 16 10 40 -16z m70 -65 c0 -5 -4 -10 -9 -10 -6 0 -13 5 -16 10 -3 6 1 10
9 10 9 0 16 -4 16 -10z m-3373 -42 c-3 -8 -6 -5 -6 6 -1 11 2 17 5 13 3 -3 4
-12 1 -19z m3468 -66 c-6 -7 -35 18 -35 31 0 5 9 2 20 -8 11 -10 18 -20 15
-23z m-2847 -11 c-7 -12 -19 -21 -27 -21 -10 0 -7 8 9 25 27 29 37 27 18 -4z
m2902 -52 c0 -6 -4 -7 -10 -4 -5 3 -10 11 -10 16 0 6 5 7 10 4 6 -3 10 -11 10
-16z m525 -11 c-12 -54 -35 -92 -48 -79 -8 8 -5 19 11 41 12 16 22 38 22 50 0
11 5 20 11 20 7 0 8 -12 4 -32z m-495 -34 c0 -8 -4 -12 -10 -9 -5 3 -10 10
-10 16 0 5 5 9 10 9 6 0 10 -7 10 -16z m-3060 -73 c0 -6 -4 -13 -10 -16 -5 -3
-10 1 -10 9 0 9 5 16 10 16 6 0 10 -4 10 -9z m3463 -73 c-32 -45 -64 -66 -44
-31 15 29 64 83 70 78 2 -3 -9 -24 -26 -47z m-3843 32 c0 -5 -2 -10 -4 -10 -3
0 -8 5 -11 10 -3 6 -1 10 4 10 6 0 11 -4 11 -10z m27 -35 c9 -25 -4 -29 -17
-6 -7 15 -7 21 0 21 6 0 13 -7 17 -15z m296 -17 c-13 -26 -18 -29 -21 -15 -4
19 14 47 29 47 5 0 2 -15 -8 -32z m3237 -19 c0 -6 -4 -7 -10 -4 -5 3 -10 11
-10 16 0 6 5 7 10 4 6 -3 10 -11 10 -16z m-3325 -120 c5 -6 5 -13 -2 -20 -7
-7 -19 -3 -39 16 l-29 26 30 -6 c17 -4 34 -11 40 -16z m3403 -1 c-6 -18 -28
-21 -28 -4 0 9 7 16 16 16 9 0 14 -5 12 -12z m-2504 -2537 c6 -10 -22 -37 -29
-29 -8 7 5 38 15 38 5 0 11 -4 14 -9z m93 -93 c-3 -8 -6 -5 -6 6 -1 11 2 17 5
13 3 -3 4 -12 1 -19z m-179 0 c-2 -6 -10 -14 -16 -16 -7 -2 -10 2 -6 12 7 18
28 22 22 4z m42 -8 c0 -5 -4 -10 -10 -10 -5 0 -10 5 -10 10 0 6 5 10 10 10 6
0 10 -4 10 -10z m1720 -41 c0 -11 5 -29 11 -41 19 -35 2 -31 -20 5 -25 41 -27
57 -6 57 8 0 15 -9 15 -21z m90 -64 c6 -11 17 -30 26 -42 14 -20 14 -23 1 -23
-8 0 -17 10 -21 23 -3 12 -21 40 -41 61 -19 21 -35 46 -35 55 1 17 53 -38 70
-74z m-1908 43 c-7 -7 -12 -8 -12 -2 0 14 12 26 19 19 2 -3 -1 -11 -7 -17z
m195 -10 c-3 -8 -6 -5 -6 6 -1 11 2 17 5 13 3 -3 4 -12 1 -19z m-21 -64 c-3
-8 -10 -12 -16 -9 -7 4 -6 14 2 28 12 24 24 8 14 -19z m-226 -22 c0 -10 -9
-25 -20 -35 -11 -9 -20 -25 -20 -35 0 -11 -9 -27 -19 -36 -11 -10 -29 -40 -40
-67 -12 -27 -26 -49 -31 -49 -5 0 -15 -12 -23 -26 -12 -24 -34 -40 -82 -63
-43 -20 -157 -32 -313 -35 -136 -2 -162 0 -160 12 2 11 34 15 156 17 119 3
173 9 238 26 111 29 141 57 253 238 44 71 61 86 61 53z m13 -108 c-22 -48 -28
-55 -31 -36 -2 13 3 31 11 40 8 9 17 30 21 46 5 20 10 26 17 19 7 -7 2 -29
-18 -69z m2047 5 c23 -33 39 -63 36 -66 -13 -13 -58 22 -63 49 -3 16 -10 31
-14 34 -9 5 -13 44 -5 44 2 0 22 -27 46 -61z m-840 21 c19 -6 68 -15 107 -20
40 -5 94 -16 120 -24 180 -53 243 -66 282 -60 43 7 53 -3 26 -26 -8 -7 -15
-18 -15 -26 0 -7 -20 -27 -44 -44 -48 -35 -73 -65 -104 -126 -24 -47 -37 -133
-23 -153 12 -19 97 -26 147 -12 51 14 123 82 165 155 47 85 65 79 121 -36 63
-132 118 -309 121 -392 2 -54 11 -45 -105 -118 -24 -15 -69 -50 -101 -77 -32
-27 -101 -70 -154 -97 -52 -26 -165 -94 -251 -151 -87 -57 -197 -124 -247
-149 l-89 -45 -201 3 -200 3 -81 41 c-44 23 -120 68 -168 100 -153 104 -231
151 -332 203 -55 28 -129 77 -167 110 -37 32 -95 73 -127 90 -57 30 -60 34
-60 69 0 91 64 290 146 453 71 143 85 155 249 204 290 87 461 126 615 139 77
7 333 -3 370 -14z m-1037 -43 c-3 -15 -14 -32 -25 -38 -21 -11 -21 -5 4 60 12
32 28 15 21 -22z m1805 0 c5 -24 -24 -21 -31 4 -4 15 -1 19 11 17 9 -2 18 -11
20 -21z m1082 2 c50 -12 92 -59 88 -95 -4 -33 -31 -40 -36 -9 -2 11 -14 28
-28 38 -36 27 -159 29 -197 5 -37 -25 -39 -23 -16 16 35 59 86 72 189 45z
m-4016 -10 c14 -11 26 -26 26 -32 0 -6 14 -26 32 -44 17 -18 29 -35 26 -39 -4
-3 -17 6 -30 21 -46 55 -46 55 -133 55 -48 0 -87 -4 -90 -11 -4 -5 -18 -14
-31 -19 -13 -5 -24 -16 -24 -25 0 -19 -19 -20 -26 -1 -8 20 22 73 48 87 65 35
163 39 202 8z m2771 -19 c11 -18 -5 -31 -26 -20 -11 6 -17 15 -14 21 8 12 32
12 40 -1z m-1865 -65 c0 -8 -4 -15 -10 -15 -5 0 -7 7 -4 15 4 8 8 15 10 15 2
0 4 -7 4 -15z m3130 -16 c0 -11 -27 -12 -34 0 -3 4 -3 11 0 14 8 8 34 -3 34
-14z m-839 -49 c82 -26 109 -30 257 -35 91 -3 167 -7 170 -9 2 -3 1 -9 -2 -14
-8 -13 -246 -14 -316 -2 -30 5 -79 12 -108 15 -42 4 -60 11 -82 34 -16 16 -26
31 -23 35 8 8 0 10 104 -24z m-3077 -12 c-4 -6 -10 -5 -15 3 -14 22 -10 33 6
19 8 -7 12 -17 9 -22z m2706 -9 c-22 -23 -40 -46 -40 -53 0 -15 -87 -112 -94
-105 -9 9 24 70 56 104 34 36 35 43 6 55 -19 7 -15 9 23 9 32 1 49 6 53 16 3
8 12 15 21 15 9 0 0 -15 -25 -41z m222 6 c3 -4 1 -16 -5 -29 l-11 -23 -18 22
c-10 13 -18 26 -18 29 0 8 45 8 52 1z m698 -22 c0 -20 -3 -24 -11 -16 -7 7 -9
19 -6 27 10 24 17 19 17 -11z m-1040 -7 c0 -2 -22 -28 -50 -57 -38 -41 -50
-49 -50 -34 0 21 67 95 87 95 7 0 13 -2 13 -4z m1642 -51 c27 -25 48 -79 48
-123 0 -49 -46 -120 -65 -100 -3 2 0 31 5 63 13 79 -2 128 -47 156 -33 21 -34
21 -48 3 -7 -11 -17 -16 -21 -12 -15 16 20 38 60 38 30 0 48 -7 68 -25z m-274
-21 c25 -17 30 -62 7 -70 -36 -14 -118 48 -100 76 9 15 68 12 93 -6z m-998
-15 c0 -5 -4 -9 -10 -9 -5 0 -10 7 -10 16 0 8 5 12 10 9 6 -3 10 -10 10 -16z
m1196 -75 c-3 -8 -10 -12 -16 -9 -14 9 -12 42 3 48 14 5 21 -17 13 -39z
m-3506 1 c0 -8 -4 -15 -10 -15 -5 0 -10 7 -10 15 0 8 5 15 10 15 6 0 10 -7 10
-15z m3046 -12 c-10 -10 -19 5 -10 18 6 11 8 11 12 0 2 -7 1 -15 -2 -18z
m-663 -80 c4 -18 3 -33 -2 -33 -12 0 -23 48 -15 61 8 13 10 10 17 -28z m-2430
-18 c-7 -21 -13 -19 -13 6 0 11 4 18 10 14 5 -3 7 -12 3 -20z m-1083 -22 c0
-25 -1 -26 -16 -11 -9 9 -13 21 -10 27 13 20 26 11 26 -16z m4610 13 c0 -3 -4
-8 -10 -11 -5 -3 -10 -1 -10 4 0 6 5 11 10 11 6 0 10 -2 10 -4z m-1051 -103
c1 -7 -6 -13 -14 -13 -15 0 -21 40 -8 54 7 7 21 -18 22 -41z m-2927 -95 c-10
-22 -11 -21 -11 12 -1 26 2 31 11 22 8 -8 8 -17 0 -34z m3338 10 c0 -5 -4 -8
-10 -8 -5 0 -10 10 -10 23 0 18 2 19 10 7 5 -8 10 -18 10 -22z m-4079 -18 c74
-14 79 -25 10 -25 -73 -1 -93 -15 -89 -64 3 -32 1 -36 -22 -36 -36 0 -59 49
-39 84 14 25 52 51 75 51 6 0 35 -5 65 -10z m4908 -5 c63 -32 52 -125 -15
-125 -27 0 -29 8 -13 44 16 35 0 52 -57 61 -51 7 -51 13 -2 25 49 12 56 11 87
-5z m-4217 -37 c-7 -7 -12 -8 -12 -2 0 6 3 14 7 17 3 4 9 5 12 2 2 -3 -1 -11
-7 -17z m4066 -56 c4 -23 -12 -29 -37 -13 -19 12 -6 43 16 39 10 -2 19 -13 21
-26z m-4658 8 c0 -13 -48 -36 -56 -27 -4 3 -4 13 -1 22 7 17 57 21 57 5z m-70
-24 c0 -9 -40 -13 -46 -5 -3 5 6 9 20 9 14 0 26 -2 26 -4z m1322 -106 c40 -11
335 -205 445 -292 93 -74 223 -159 313 -204 l75 -38 140 -2 c96 -1 158 -6 196
-17 68 -20 109 -50 93 -67 -9 -8 -26 -7 -69 6 -47 13 -81 15 -179 10 -183 -11
-179 -11 -279 39 -50 26 -94 50 -97 53 -3 4 -25 20 -50 36 -25 16 -79 57 -120
90 -41 33 -81 65 -88 71 -7 5 -21 17 -30 25 -16 14 -175 122 -214 145 -89 53
-117 67 -141 72 -20 4 -33 17 -47 44 -21 45 -16 47 52 29z m2158 -13 c0 -18
-29 -57 -43 -57 -13 0 -119 -51 -127 -61 -3 -3 -16 -12 -29 -19 -14 -7 -30
-17 -35 -22 -6 -5 -44 -31 -85 -58 -41 -26 -118 -84 -170 -128 -115 -96 -185
-147 -228 -167 -18 -9 -33 -20 -33 -25 0 -13 -46 -13 -71 0 -34 19 -20 38 61
81 45 24 138 86 208 138 179 133 261 191 270 191 5 0 17 9 27 20 10 11 22 20
27 20 5 0 33 18 63 40 30 23 65 45 78 50 34 14 87 12 87 -3z m-2510 -6 c0 -5
-9 -11 -20 -14 -20 -5 -26 3 -13 16 9 10 33 8 33 -2z m-70 -45 c0 -2 -13 -20
-30 -41 -34 -42 -41 -29 -9 16 17 24 39 39 39 25z m-615 -25 c3 -5 -5 -17 -17
-25 -26 -18 -38 -5 -18 19 14 17 26 19 35 6z m-162 -63 c-7 -13 -41 -9 -46 6
-3 7 2 24 10 36 l16 23 12 -29 c7 -16 10 -32 8 -36z m4367 41 c0 -6 -4 -7 -10
-4 -5 3 -10 11 -10 16 0 6 5 7 10 4 6 -3 10 -11 10 -16z m-4260 -19 c0 -5 -10
-10 -22 -9 -22 0 -22 1 -3 9 11 5 21 9 23 9 1 1 2 -3 2 -9z m4440 -5 c0 -16
-27 -32 -37 -22 -3 4 -3 13 0 22 8 20 37 20 37 0z m-80 -5 c0 -5 -13 -10 -29
-10 -17 0 -33 5 -36 10 -4 6 8 10 29 10 20 0 36 -4 36 -10z m-650 -41 c0 -17
-20 -29 -20 -11 0 4 -3 18 -7 32 -6 22 -5 24 10 11 9 -7 17 -22 17 -32z
m-3129 -36 c-9 -16 -10 -16 -11 -1 0 9 3 25 7 35 7 16 8 17 11 1 2 -10 -1 -25
-7 -35z m-20 -96 c-8 -8 -11 -7 -11 4 0 20 13 34 18 19 3 -7 -1 -17 -7 -23z
m3174 -17 c-4 -20 -11 -28 -16 -23 -6 6 -5 20 2 37 16 34 23 26 14 -14z
m-1184 -302 c10 -13 18 -32 19 -42 0 -13 -7 -8 -25 18 -14 20 -25 39 -25 41 0
11 13 3 31 -17z m-501 -48 c0 -5 -2 -10 -4 -10 -3 0 -8 5 -11 10 -3 6 -1 10 4
10 6 0 11 -4 11 -10z m-140 -21 c0 -11 -4 -17 -10 -14 -5 3 -10 13 -10 21 0 8
5 14 10 14 6 0 10 -9 10 -21z"/>
<path d="M5059 8620 c-42 -22 -135 -121 -163 -174 -23 -43 -15 -71 17 -62 21
6 141 27 236 42 64 9 101 49 101 107 0 39 -5 49 -35 76 -43 37 -99 41 -156 11z"/>
<path d="M6454 8607 c-29 -26 -36 -40 -36 -70 0 -41 21 -80 53 -97 17 -10 236
-49 294 -54 31 -2 29 29 -6 81 -108 161 -224 215 -305 140z"/>
<path d="M4895 7953 c-157 -38 -259 -99 -368 -221 -98 -109 -138 -204 -157
-372 -9 -73 -7 -95 10 -164 28 -107 61 -153 135 -191 54 -28 67 -30 159 -30
127 1 211 26 421 130 264 130 312 165 346 254 32 82 31 256 -2 344 -48 128
-108 189 -230 231 -65 22 -91 26 -185 25 -60 -1 -118 -3 -129 -6z m365 -363
c0 -16 -4 -30 -10 -30 -5 0 -10 14 -10 30 0 17 5 30 10 30 6 0 10 -13 10 -30z
m150 -75 c0 -56 -12 -98 -22 -79 -3 5 -3 44 0 88 5 91 22 85 22 -9z m-180 -4
c0 -23 -16 -36 -25 -21 -9 14 1 40 15 40 5 0 10 -9 10 -19z m-490 -32 c0 -6
-4 -7 -10 -4 -5 3 -10 11 -10 16 0 6 5 7 10 4 6 -3 10 -11 10 -16z m-150 -4
c0 -8 -4 -15 -10 -15 -5 0 -10 7 -10 15 0 8 5 15 10 15 6 0 10 -7 10 -15z
m188 -34 c3 -8 -1 -12 -9 -9 -7 2 -15 10 -17 17 -3 8 1 12 9 9 7 -2 15 -10 17
-17z m412 -1 c0 -5 -4 -10 -10 -10 -5 0 -10 5 -10 10 0 6 5 10 10 10 6 0 10
-4 10 -10z m-109 -50 c-13 -11 -32 -20 -44 -20 -23 0 -19 7 15 26 37 20 56 16
29 -6z m-440 -33 c12 -22 12 -22 -10 -3 -11 11 -21 23 -21 28 0 14 19 -1 31
-25z m689 -57 c0 -5 -5 -10 -11 -10 -5 0 -7 5 -4 10 3 6 8 10 11 10 2 0 4 -4
4 -10z m-600 -50 c0 -5 -2 -10 -4 -10 -3 0 -8 5 -11 10 -3 6 -1 10 4 10 6 0
11 -4 11 -10z m45 -30 c3 -5 24 -14 46 -20 23 -6 37 -15 33 -21 -7 -12 -49 -4
-67 12 -7 5 -21 16 -32 24 -17 12 -18 14 -3 15 9 0 20 -4 23 -10z m447 -12
c-7 -7 -12 -8 -12 -2 0 14 12 26 19 19 2 -3 -1 -11 -7 -17z m-134 -50 c-3 -8
-29 -14 -73 -16 -97 -4 -118 11 -25 18 41 4 81 7 88 8 8 1 12 -4 10 -10z"/>
<path d="M6457 7935 c-103 -37 -154 -80 -201 -170 -79 -154 -73 -372 14 -477
57 -68 424 -256 582 -298 102 -27 228 -24 288 5 118 59 166 168 158 353 -9
174 -61 291 -190 422 -82 83 -155 127 -275 165 -110 35 -277 35 -376 0z m-177
-395 c0 -10 -4 -21 -9 -25 -12 -7 -25 31 -16 45 9 15 25 2 25 -20z m680 -49
c0 -12 -29 -35 -36 -28 -11 10 5 37 21 37 8 0 15 -4 15 -9z m126 -59 c-12 -11
-17 7 -9 34 l8 29 3 -28 c2 -16 1 -31 -2 -35z m-591 18 c3 -5 2 -10 -4 -10 -5
0 -13 5 -16 10 -3 6 -2 10 4 10 5 0 13 -4 16 -10z m365 -40 c0 -5 -10 -10 -22
-10 -19 0 -20 2 -8 10 19 13 30 13 30 0z m-555 -21 c6 -19 0 -38 -9 -28 -10
12 -16 49 -7 49 5 0 13 -9 16 -21z m45 -63 c0 -2 3 -11 6 -20 9 -23 -13 -20
-26 4 -9 16 -8 20 5 20 8 0 15 -2 15 -4z m535 -122 c-15 -14 -35 -24 -44 -22
-11 2 -6 9 19 25 48 29 59 28 25 -3z m-369 -14 c21 -10 31 -19 22 -20 -10 0
-32 9 -50 20 -42 26 -23 26 28 0z m264 -41 c0 -12 -37 -12 -45 0 -3 5 3 11 12
13 21 5 33 0 33 -13z m-132 -6 c-10 -2 -26 -2 -35 0 -10 3 -2 5 17 5 19 0 27
-2 18 -5z"/>
<path d="M5669 7414 c-20 -21 -21 -26 -9 -55 16 -39 98 -105 149 -120 31 -9
43 -8 72 6 56 28 115 82 129 116 13 30 12 33 -12 54 -24 21 -36 22 -166 22
-135 1 -142 0 -163 -23z"/>
<path d="M5773 7044 c-31 -13 -58 -47 -49 -62 4 -7 205 -9 207 -1 6 17 -17 48
-46 62 -42 20 -69 20 -112 1z"/>
<path d="M4184 3985 c-18 -47 196 -290 335 -380 203 -132 476 -223 780 -261
104 -13 172 -15 305 -9 229 9 251 9 471 0 165 -6 208 -4 330 14 253 37 439 93
635 193 124 63 137 73 142 103 3 21 -1 22 -228 43 -45 4 -87 12 -95 19 -8 6
-39 15 -69 19 -30 4 -65 11 -78 15 -35 13 -315 60 -374 62 -39 2 -64 10 -93
30 -48 33 -53 33 -98 3 -31 -21 -41 -23 -69 -15 -18 5 -102 9 -186 9 -119 0
-160 3 -183 16 -28 14 -33 14 -66 -6 -30 -17 -60 -22 -167 -28 -374 -19 -848
4 -976 48 -124 43 -178 66 -239 102 -72 44 -70 43 -77 23z m1566 -235 c0 -5
-4 -10 -10 -10 -5 0 -10 5 -10 10 0 6 5 10 10 10 6 0 10 -4 10 -10z m560 -15
c0 -17 -17 -28 -30 -20 -7 4 -7 13 0 26 12 21 30 17 30 -6z m-190 -62 c0 -10
-42 -53 -52 -53 -13 0 -9 48 5 53 18 8 47 8 47 0z"/>
</g>
</svg>
